<svg width="36" height="35" viewBox="0 0 36 35" fill="none" xmlns="http://www.w3.org/2000/svg">
<path d="M18.1212 34.4768C27.4988 34.4768 35.1008 26.8748 35.1008 17.4972C35.1008 8.11962 27.4988 0.517578 18.1212 0.517578C8.74362 0.517578 1.1416 8.11962 1.1416 17.4972C1.1416 26.8748 8.74362 34.4768 18.1212 34.4768Z" fill="#7CCE00"/>
<path d="M17.396 29.6557C17.215 29.5639 16.9538 29.3393 16.8156 29.1561L16.5642 28.823L15.7781 28.664C11.7725 27.8527 8.14702 24.697 7.06307 21.0784L6.93808 20.6604L4.91006 20.6017L4.55355 20.3808C4.32002 20.2362 4.13765 20.0475 4.02478 19.8338L3.85256 19.5076V17.258C3.85256 14.814 3.85843 14.7876 4.28663 14.3248C4.59709 13.9907 4.73048 13.9476 5.57778 13.9069L6.37778 13.8688L6.56378 13.3137C10.1937 2.46684 25.9347 2.46684 29.5646 13.3137L29.7506 13.8688L30.5505 13.9069C31.3979 13.9477 31.5313 13.9909 31.8417 14.3248C32.2719 14.7876 32.2758 14.814 32.2758 17.258V19.5076L32.1036 19.8338C31.9906 20.048 31.8081 20.2363 31.573 20.3821L31.2146 20.6045L29.5988 20.6279C28.71 20.6397 27.9829 20.6257 27.9829 20.5907C27.9829 20.5569 28.0474 20.3014 28.1278 20.0234C30.5674 11.4929 21.5495 3.99453 13.5129 7.87114C4.47377 12.2314 6.31532 25.5546 16.2292 27.523L16.651 27.6069L16.9262 27.3022C17.7514 26.3889 19.1769 26.7063 19.5179 27.8792C19.8846 29.141 18.5658 30.2433 17.397 29.652L17.396 29.6557Z" fill="black"/>
<path d="M17.9521 11.9235C17.5541 11.9235 17.2324 12.2438 17.2324 12.6419V22.3578C17.2324 22.7558 17.5541 23.0761 17.9521 23.0761H18.1744C18.5724 23.0761 18.8927 22.7558 18.8927 22.3578V12.6419C18.8927 12.2438 18.5724 11.9235 18.1744 11.9235H17.9521ZM14.2529 14.6251C13.8548 14.6251 13.5346 14.9468 13.5346 15.3449V19.6547C13.5346 20.0528 13.8548 20.3731 14.2529 20.3731H14.4764C14.8745 20.3731 15.1947 20.0528 15.1947 19.6547V15.3449C15.1947 14.9468 14.8745 14.6251 14.4764 14.6251H14.2529ZM21.65 14.6251C21.2519 14.6251 20.9316 14.9468 20.9316 15.3449V19.6547C20.9316 20.0528 21.2519 20.3731 21.65 20.3731H21.872C22.27 20.3731 22.5903 20.0528 22.5903 19.6547V15.3449C22.5903 14.9468 22.27 14.6251 21.872 14.6251H21.65Z" fill="black"/>
<path d="M18.1212 34.5833C27.5576 34.5833 35.2073 26.9336 35.2073 17.4972C35.2073 8.06081 27.5576 0.411088 18.1212 0.411088C8.68481 0.411088 1.03511 8.06081 1.03511 17.4972C1.03511 26.9336 8.68481 34.5833 18.1212 34.5833Z" stroke="black" strokeWidth="0.21298"/>
</svg>
