<svg width="252" height="44" viewBox="0 0 252 44" fill="none" xmlns="http://www.w3.org/2000/svg">
<path d="M0 1.96123V41.3494C3.57038e-06 41.8696 0.206675 42.3684 0.574503 42.7362C0.94233 43.1041 1.44121 43.3108 1.96139 43.3108H21.6559C33.6162 43.311 43.312 33.6152 43.3117 21.6549C43.3103 20.6415 43.238 19.6296 43.0946 18.6264C43.0912 18.6006 43.0894 18.5717 43.0843 18.5444C42.9393 17.5536 42.7263 16.5739 42.4461 15.6126C42.4358 15.5816 42.4306 15.5502 42.4203 15.5187C42.1392 14.5712 41.7941 13.644 41.3865 12.7437C41.3659 12.6972 41.3452 12.6487 41.3236 12.6013C40.9146 11.7143 40.4457 10.856 39.9206 10.0323C39.8896 9.98071 39.8577 9.93329 39.8257 9.88378C39.296 9.0665 38.7118 8.2859 38.0771 7.54728C38.0358 7.50086 37.9987 7.45647 37.9595 7.41159C37.3187 6.67797 36.6293 5.98842 35.8957 5.34765C35.8544 5.31154 35.8095 5.27287 35.7662 5.23573C35.0262 4.5996 34.2441 4.01427 33.4251 3.48361C33.3787 3.45267 33.3302 3.42376 33.2827 3.39436C32.4577 2.86784 31.5979 2.39789 30.7093 1.98768C30.6629 1.96705 30.6143 1.94638 30.5669 1.92472C29.6688 1.51827 28.7441 1.17397 27.7992 0.893688C27.7631 0.883372 27.7239 0.873073 27.6862 0.862758C26.729 0.584227 25.7536 0.37167 24.7672 0.227298C24.7414 0.223791 24.7125 0.222146 24.6852 0.216988C23.6817 0.0741122 22.6694 0.00189734 21.6558 0.00086575L1.96139 1.44519e-09C1.70383 -9.88811e-06 1.44879 0.0507441 1.21083 0.149302C0.972866 0.24786 0.756633 0.392264 0.574503 0.574385C0.392372 0.756506 0.247912 0.972753 0.149342 1.21071C0.050771 1.44867 3.65758e-06 1.70367 0 1.96123Z" fill="#7CCE00"/>
<path d="M21.6552 40.1398C31.8644 40.1398 40.1407 31.8635 40.1407 21.6543C40.1407 11.445 31.8644 3.16875 21.6552 3.16875C11.4459 3.16875 3.16969 11.445 3.16969 21.6543C3.16969 31.8635 11.4459 40.1398 21.6552 40.1398Z" fill="#F2F2F2"/>
<path d="M20.8642 36.0757C20.6495 35.9668 20.3397 35.7004 20.1758 35.4832L19.8776 35.0881L18.9452 34.8995C14.1943 33.9372 9.89414 30.1943 8.60849 25.9024L8.46024 25.4066L6.05484 25.337L5.63199 25.0749C5.355 24.9034 5.1387 24.6796 5.00483 24.4261L4.80056 24.0393V21.3711C4.80056 18.4722 4.80752 18.4409 5.3154 17.892C5.68363 17.4957 5.84185 17.4446 6.84682 17.3964L7.79567 17.3511L8.01629 16.6927C12.3217 3.82747 30.9918 3.82747 35.2972 16.6927L35.5178 17.3511L36.4666 17.3964C37.4716 17.4447 37.6298 17.4959 37.998 17.892C38.5082 18.4409 38.5129 18.4722 38.5129 21.3711V24.0393L38.3086 24.4261C38.1746 24.6802 37.9582 24.9036 37.6793 25.0764L37.2542 25.3402L35.3377 25.368C34.2836 25.382 33.4211 25.3654 33.4211 25.3239C33.4211 25.2838 33.4977 24.9807 33.593 24.651C36.4866 14.5331 25.7906 5.63944 16.2585 10.2374C5.53736 15.409 7.7216 31.2114 19.4803 33.5462L19.9805 33.6457L20.307 33.2842C21.2857 32.201 22.9765 32.5775 23.3809 33.9687C23.8159 35.4652 22.2517 36.7726 20.8654 36.0713L20.8642 36.0757Z" fill="#7CCE00"/>
<path d="M21.526 15.0444C21.0539 15.0444 20.6723 15.4242 20.6723 15.8963V27.4202C20.6723 27.8924 21.0539 28.2722 21.526 28.2722H21.7896C22.2617 28.2722 22.6416 27.8924 22.6416 27.4202V15.8963C22.6416 15.4242 22.2617 15.0444 21.7896 15.0444H21.526ZM15.3706 18.2487C14.8985 18.2487 14.5186 18.6302 14.5186 19.1024V24.2142C14.5186 24.6863 14.8985 25.0662 15.3706 25.0662H15.6358C16.1079 25.0662 16.4877 24.6863 16.4877 24.2142V19.1024C16.4877 18.6302 16.1079 18.2487 15.6358 18.2487H15.3706ZM27.6797 18.2487C27.2076 18.2487 26.8277 18.6302 26.8277 19.1024V24.2142C26.8277 24.6863 27.2076 25.0662 27.6797 25.0662H27.943C28.4151 25.0662 28.795 24.6863 28.795 24.2142V19.1024C28.795 18.6302 28.4151 18.2487 27.943 18.2487H27.6797Z" fill="#7CCE00"/>
<path d="M47.4445 4.53344H58.402C63.7526 4.53344 67.8697 6.02328 70.7532 9.00295C73.6368 11.9506 75.0785 16.1638 75.0785 21.6425C75.0785 27.0893 73.6528 31.2864 70.8013 34.2341C67.9818 37.1817 63.9448 38.6555 58.6903 38.6555H47.4445V4.53344ZM58.402 33.8976C62.1826 33.8976 65.0021 32.8884 66.8604 30.8699C68.7507 28.8194 69.6959 25.7436 69.6959 21.6425C69.6959 17.5094 68.7507 14.4176 66.8604 12.3671C65.0021 10.3166 62.1826 9.29131 58.402 9.29131H52.6349V33.8976H58.402Z" fill="white"/>
<path d="M77.7995 13.088H82.8938V38.6555H77.7995V13.088ZM77.7034 4.29315H83.038V9.38743H77.7034V4.29315Z" fill="white"/>
<path d="M95.4305 39.2322C92.7712 39.2322 90.6406 38.6235 89.0386 37.406C87.4687 36.1564 86.6837 34.4423 86.6837 32.2636C86.6837 30.0849 87.3405 28.3708 88.6542 27.1213C89.9678 25.8718 92.0343 24.9746 94.8538 24.43L103.649 22.7479C103.649 20.7615 103.184 19.2876 102.255 18.3265C101.358 17.3332 99.9962 16.8366 98.1699 16.8366C96.5679 16.8366 95.2863 17.2051 94.3252 17.942C93.364 18.6468 92.7232 19.7041 92.4028 21.1139L87.1163 20.7775C87.5969 18.1823 88.7983 16.1638 90.7207 14.722C92.6751 13.2482 95.1582 12.5113 98.1699 12.5113C101.598 12.5113 104.209 13.4244 106.004 15.2507C107.83 17.0769 108.743 19.6721 108.743 23.0363V32.9845C108.743 33.5933 108.855 34.0258 109.079 34.2821C109.304 34.5064 109.656 34.6185 110.137 34.6185H111.05V38.6555C110.825 38.6876 110.537 38.7196 110.185 38.7516C109.864 38.7837 109.528 38.7997 109.175 38.7997C107.413 38.7997 106.1 38.3832 105.235 37.5502C104.402 36.6851 103.985 35.2433 103.985 33.2248L104.514 33.4651C104.161 35.1312 103.136 36.5089 101.438 37.5982C99.7398 38.6876 97.7374 39.2322 95.4305 39.2322ZM96.2956 35.1952C97.8014 35.1952 99.099 34.9069 100.188 34.3302C101.31 33.7214 102.159 32.8884 102.736 31.8311C103.344 30.7738 103.649 29.5723 103.649 28.2267V26.5926L96.1995 28.0344C94.6936 28.3228 93.6043 28.7713 92.9314 29.3801C92.2906 29.9888 91.9703 30.7898 91.9703 31.783C91.9703 32.8724 92.3387 33.7214 93.0756 34.3302C93.8446 34.9069 94.9179 35.1952 96.2956 35.1952Z" fill="white"/>
<path d="M119.471 38.6555C117.708 38.6555 116.331 38.223 115.338 37.3579C114.344 36.4608 113.848 35.0831 113.848 33.2248L113.896 4.53344H118.99V32.7442C118.99 33.3209 119.134 33.7535 119.423 34.0418C119.743 34.3302 120.176 34.4744 120.72 34.4744H122.787V38.6555H119.471Z" fill="white"/>
<path d="M140.32 39.4245C137.148 39.4245 134.393 38.6715 132.054 37.1657C129.747 35.6598 127.969 33.5612 126.719 30.8699C125.502 28.1786 124.893 25.1028 124.893 21.6425C124.893 18.2143 125.518 15.1545 126.767 12.4632C128.049 9.73986 129.859 7.60923 132.198 6.07134C134.537 4.53344 137.308 3.76449 140.512 3.76449C144.517 3.76449 147.689 4.80578 150.028 6.88835C152.367 8.93887 153.889 11.7263 154.594 15.2507L149.163 15.539C148.747 13.2962 147.833 11.5661 146.424 10.3486C145.046 9.13111 143.092 8.52236 140.56 8.52236C137.132 8.52236 134.553 9.75588 132.823 12.2229C131.125 14.6579 130.276 17.7978 130.276 21.6425C130.276 24.2057 130.644 26.4645 131.381 28.4189C132.118 30.3733 133.255 31.9112 134.793 33.0326C136.331 34.1219 138.254 34.6666 140.56 34.6666C142.355 34.6666 143.941 34.2821 145.318 33.5132C146.696 32.7122 147.753 31.6228 148.49 30.2451C149.259 28.8354 149.676 27.2975 149.74 25.6315H140.608V21.2581H154.69V38.6555H151.133L150.797 30.966L151.47 31.5427C151.117 33.0806 150.397 34.4423 149.307 35.6278C148.25 36.8132 146.92 37.7424 145.318 38.4152C143.748 39.088 142.082 39.4245 140.32 39.4245Z" fill="white"/>
<path d="M169.904 39.2322C167.469 39.2322 165.338 38.6876 163.512 37.5982C161.685 36.5089 160.276 34.955 159.283 32.9365C158.289 30.918 157.793 28.5631 157.793 25.8718C157.793 23.2125 158.289 20.8736 159.283 18.8551C160.276 16.8046 161.669 15.2346 163.464 14.1453C165.258 13.0559 167.356 12.5113 169.759 12.5113C172.098 12.5113 174.149 13.0559 175.911 14.1453C177.673 15.2026 179.035 16.7565 179.996 18.807C180.989 20.8255 181.486 23.2445 181.486 26.064V27.3616H163.127C163.223 29.7966 163.864 31.6549 165.05 32.9365C166.267 34.218 167.901 34.8588 169.952 34.8588C171.458 34.8588 172.707 34.5224 173.7 33.8496C174.693 33.1768 175.398 32.2156 175.815 30.966L181.101 31.3025C180.429 33.7375 179.083 35.6758 177.064 37.1176C175.078 38.5274 172.691 39.2322 169.904 39.2322ZM176.055 23.5168C175.895 21.3061 175.254 19.6401 174.133 18.5187C173.043 17.3973 171.586 16.8366 169.759 16.8366C167.933 16.8366 166.427 17.4133 165.242 18.5667C164.088 19.7202 163.384 21.3702 163.127 23.5168H176.055Z" fill="white"/>
<path d="M185.004 13.088H189.665L189.858 19.9124L189.233 19.576C189.649 17.2051 190.594 15.4429 192.068 14.2895C193.574 13.104 195.4 12.5113 197.547 12.5113C200.302 12.5113 202.433 13.4084 203.939 15.2026C205.445 16.9648 206.198 19.3037 206.198 22.2192V38.6555H201.103V23.7571C201.103 21.4503 200.719 19.7202 199.95 18.5667C199.181 17.3813 197.916 16.7886 196.153 16.7886C194.295 16.7886 192.821 17.3973 191.732 18.6148C190.643 19.8323 190.098 21.5464 190.098 23.7571V38.6555H185.004V13.088Z" fill="white"/>
<path d="M209.986 32.6H216.233V38.6555H209.986V32.6Z" fill="#7CCE00"/>
<path d="M227.276 39.2322C224.617 39.2322 222.486 38.6235 220.884 37.406C219.314 36.1564 218.529 34.4423 218.529 32.2636C218.529 30.0849 219.186 28.3708 220.5 27.1213C221.813 25.8718 223.88 24.9746 226.699 24.43L235.494 22.7479C235.494 20.7615 235.03 19.2876 234.101 18.3265C233.204 17.3332 231.842 16.8366 230.016 16.8366C228.414 16.8366 227.132 17.2051 226.171 17.942C225.21 18.6468 224.569 19.7041 224.248 21.1139L218.962 20.7775C219.443 18.1823 220.644 16.1638 222.566 14.722C224.521 13.2482 227.004 12.5113 230.016 12.5113C233.444 12.5113 236.055 13.4244 237.849 15.2507C239.675 17.0769 240.589 19.6721 240.589 23.0363V32.9845C240.589 33.5933 240.701 34.0258 240.925 34.2821C241.149 34.5064 241.502 34.6185 241.982 34.6185H242.895V38.6555C242.671 38.6876 242.383 38.7196 242.03 38.7516C241.71 38.7837 241.374 38.7997 241.021 38.7997C239.259 38.7997 237.945 38.3832 237.08 37.5502C236.247 36.6851 235.831 35.2433 235.831 33.2248L236.359 33.4651C236.007 35.1312 234.982 36.5089 233.284 37.5982C231.586 38.6876 229.583 39.2322 227.276 39.2322ZM228.141 35.1952C229.647 35.1952 230.945 34.9069 232.034 34.3302C233.155 33.7214 234.005 32.8884 234.581 31.8311C235.19 30.7738 235.494 29.5723 235.494 28.2267V26.5926L228.045 28.0344C226.539 28.3228 225.45 28.7713 224.777 29.3801C224.136 29.9888 223.816 30.7898 223.816 31.783C223.816 32.8724 224.184 33.7214 224.921 34.3302C225.69 34.9069 226.764 35.1952 228.141 35.1952Z" fill="#7CCE00"/>
<path d="M246.163 13.088H251.257V38.6555H246.163V13.088ZM246.067 4.29315H251.401V9.38743H246.067V4.29315Z" fill="#7CCE00"/>
</svg>
