<svg width="252" height="44" viewBox="0 0 252 44" fill="none" xmlns="http://www.w3.org/2000/svg">
<g clip-path="url(#clip0_70_2)">
<path d="M0 1.96123V41.3494C3.57038e-06 41.8696 0.206675 42.3684 0.574503 42.7362C0.94233 43.1041 1.44121 43.3108 1.96139 43.3108H21.6559C33.6162 43.311 43.312 33.6152 43.3117 21.6549C43.3103 20.6415 43.238 19.6296 43.0946 18.6264C43.0912 18.6006 43.0894 18.5717 43.0843 18.5444C42.9393 17.5536 42.7263 16.5739 42.4461 15.6126C42.4358 15.5816 42.4306 15.5502 42.4203 15.5187C42.1392 14.5712 41.7941 13.644 41.3865 12.7437C41.3659 12.6972 41.3452 12.6487 41.3236 12.6013C40.9146 11.7143 40.4457 10.856 39.9206 10.0323C39.8896 9.98071 39.8577 9.93329 39.8257 9.88378C39.296 9.0665 38.7118 8.2859 38.0771 7.54728C38.0358 7.50086 37.9987 7.45647 37.9595 7.41159C37.3187 6.67797 36.6293 5.98842 35.8957 5.34765C35.8544 5.31154 35.8095 5.27287 35.7662 5.23573C35.0262 4.5996 34.2441 4.01427 33.4251 3.48361C33.3787 3.45267 33.3302 3.42376 33.2827 3.39436C32.4577 2.86784 31.5979 2.39789 30.7093 1.98768C30.6629 1.96705 30.6143 1.94638 30.5669 1.92472C29.6688 1.51827 28.7441 1.17397 27.7992 0.893688C27.7631 0.883372 27.7239 0.873073 27.6862 0.862758C26.729 0.584227 25.7536 0.37167 24.7672 0.227298C24.7414 0.223791 24.7125 0.222146 24.6852 0.216988C23.6817 0.0741122 22.6694 0.00189734 21.6558 0.00086575L1.96139 1.44498e-09C1.70383 -9.88811e-06 1.44879 0.0507441 1.21083 0.149302C0.972866 0.24786 0.756633 0.392264 0.574503 0.574385C0.392372 0.756506 0.247912 0.972753 0.149342 1.21071C0.050771 1.44867 3.65758e-06 1.70367 0 1.96123Z" fill="#7CCE00"/>
<path d="M21.6554 40.14C31.8646 40.14 40.1409 31.8637 40.1409 21.6545C40.1409 11.4452 31.8646 3.16895 21.6554 3.16895C11.4461 3.16895 3.16992 11.4452 3.16992 21.6545C3.16992 31.8637 11.4461 40.14 21.6554 40.14Z" fill="#F2F2F2"/>
<path d="M20.8644 36.0759C20.6497 35.967 20.3399 35.7006 20.176 35.4834L19.8778 35.0883L18.9454 34.8997C14.1945 33.9374 9.89436 30.1945 8.60871 25.9026L8.46046 25.4068L6.05506 25.3372L5.63221 25.0751C5.35522 24.9036 5.13892 24.6798 5.00505 24.4263L4.80078 24.0395V21.3713C4.80078 18.4724 4.80774 18.4411 5.31562 17.8922C5.68385 17.4959 5.84207 17.4448 6.84704 17.3966L7.79589 17.3513L8.01651 16.6929C12.3219 3.82764 30.992 3.82764 35.2974 16.6929L35.518 17.3513L36.4668 17.3966C37.4718 17.4449 37.63 17.4961 37.9982 17.8922C38.5084 18.4411 38.5131 18.4724 38.5131 21.3713V24.0395L38.3088 24.4263C38.1748 24.6804 37.9584 24.9038 37.6795 25.0766L37.2544 25.3404L35.3379 25.3682C34.2838 25.3822 33.4213 25.3656 33.4213 25.3241C33.4213 25.284 33.4979 24.9809 33.5932 24.6512C36.4868 14.5333 25.7908 5.63961 16.2587 10.2376C5.53758 15.4092 7.72182 31.2116 19.4805 33.5464L19.9807 33.6459L20.3072 33.2844C21.2859 32.2012 22.9767 32.5777 23.3811 33.9689C23.8161 35.4654 22.2519 36.7728 20.8656 36.0715L20.8644 36.0759Z" fill="#7CCE00"/>
<path d="M21.5269 15.0444C21.0548 15.0444 20.6732 15.4242 20.6732 15.8963V27.4202C20.6732 27.8924 21.0548 28.2722 21.5269 28.2722H21.7905C22.2626 28.2722 22.6425 27.8924 22.6425 27.4202V15.8963C22.6425 15.4242 22.2626 15.0444 21.7905 15.0444H21.5269ZM15.3715 18.2487C14.8994 18.2487 14.5195 18.6302 14.5195 19.1024V24.2142C14.5195 24.6863 14.8994 25.0662 15.3715 25.0662H15.6367C16.1088 25.0662 16.4886 24.6863 16.4886 24.2142V19.1024C16.4886 18.6302 16.1088 18.2487 15.6367 18.2487H15.3715ZM27.6806 18.2487C27.2085 18.2487 26.8286 18.6302 26.8286 19.1024V24.2142C26.8286 24.6863 27.2085 25.0662 27.6806 25.0662H27.9439C28.416 25.0662 28.7959 24.6863 28.7959 24.2142V19.1024C28.7959 18.6302 28.416 18.2487 27.9439 18.2487H27.6806Z" fill="#7CCE00"/>
<path d="M47.4453 4.5332H58.4028C63.7534 4.5332 67.8705 6.02304 70.754 9.00271C73.6376 11.9504 75.0793 16.1636 75.0793 21.6423C75.0793 27.0891 73.6536 31.2862 70.8021 34.2339C67.9826 37.1815 63.9456 38.6553 58.6911 38.6553H47.4453V4.5332ZM58.4028 33.8974C62.1834 33.8974 65.0029 32.8882 66.8612 30.8697C68.7515 28.8192 69.6967 25.7434 69.6967 21.6423C69.6967 17.5092 68.7515 14.4174 66.8612 12.3669C65.0029 10.3164 62.1834 9.29107 58.4028 9.29107H52.6357V33.8974H58.4028Z" fill="#020121"/>
<path d="M77.7992 13.0878H82.8935V38.6553H77.7992V13.0878ZM77.7031 4.29297H83.0377V9.38725H77.7031V4.29297Z" fill="#020121"/>
<path d="M95.4304 39.2321C92.7711 39.2321 90.6405 38.6234 89.0385 37.4059C87.4686 36.1563 86.6836 34.4422 86.6836 32.2635C86.6836 30.0848 87.3404 28.3707 88.6541 27.1212C89.9677 25.8717 92.0342 24.9745 94.8537 24.4299L103.649 22.7478C103.649 20.7614 103.184 19.2875 102.255 18.3264C101.358 17.3331 99.9961 16.8365 98.1698 16.8365C96.5678 16.8365 95.2862 17.205 94.3251 17.9419C93.3639 18.6467 92.7231 19.704 92.4027 21.1138L87.1162 20.7774C87.5968 18.1822 88.7982 16.1637 90.7206 14.7219C92.675 13.2481 95.1581 12.5112 98.1698 12.5112C101.598 12.5112 104.209 13.4243 106.004 15.2506C107.83 17.0768 108.743 19.672 108.743 23.0362V32.9844C108.743 33.5932 108.855 34.0257 109.079 34.282C109.304 34.5063 109.656 34.6184 110.137 34.6184H111.05V38.6554C110.825 38.6875 110.537 38.7195 110.185 38.7515C109.864 38.7836 109.528 38.7996 109.175 38.7996C107.413 38.7996 106.1 38.3831 105.235 37.5501C104.402 36.685 103.985 35.2432 103.985 33.2247L104.514 33.465C104.161 35.1311 103.136 36.5088 101.438 37.5981C99.7397 38.6875 97.7373 39.2321 95.4304 39.2321ZM96.2955 35.1951C97.8013 35.1951 99.0989 34.9068 100.188 34.3301C101.31 33.7213 102.159 32.8883 102.736 31.831C103.344 30.7737 103.649 29.5722 103.649 28.2266V26.5925L96.1994 28.0343C94.6935 28.3227 93.6042 28.7712 92.9313 29.38C92.2905 29.9887 91.9702 30.7897 91.9702 31.7829C91.9702 32.8723 92.3386 33.7213 93.0755 34.3301C93.8445 34.9068 94.9178 35.1951 96.2955 35.1951Z" fill="#020121"/>
<path d="M119.471 38.6553C117.708 38.6553 116.331 38.2228 115.338 37.3577C114.344 36.4606 113.848 35.0829 113.848 33.2246L113.896 4.5332H118.99V32.744C118.99 33.3207 119.134 33.7533 119.423 34.0416C119.743 34.33 120.176 34.4742 120.72 34.4742H122.787V38.6553H119.471Z" fill="#020121"/>
<path d="M140.32 39.4247C137.148 39.4247 134.393 38.6717 132.054 37.1659C129.747 35.66 127.969 33.5614 126.719 30.8701C125.502 28.1788 124.893 25.103 124.893 21.6427C124.893 18.2145 125.518 15.1547 126.767 12.4634C128.049 9.74002 129.859 7.60939 132.198 6.0715C134.537 4.5336 137.308 3.76465 140.512 3.76465C144.517 3.76465 147.689 4.80594 150.028 6.88851C152.367 8.93903 153.889 11.7265 154.594 15.2509L149.163 15.5392C148.747 13.2964 147.833 11.5663 146.424 10.3488C145.046 9.13127 143.092 8.52252 140.56 8.52252C137.132 8.52252 134.553 9.75604 132.823 12.2231C131.125 14.6581 130.276 17.798 130.276 21.6427C130.276 24.2059 130.644 26.4647 131.381 28.4191C132.118 30.3735 133.255 31.9114 134.793 33.0328C136.331 34.1221 138.254 34.6668 140.56 34.6668C142.355 34.6668 143.941 34.2823 145.318 33.5134C146.696 32.7124 147.753 31.623 148.49 30.2453C149.259 28.8356 149.676 27.2977 149.74 25.6317H140.608V21.2583H154.69V38.6557H151.133L150.797 30.9662L151.47 31.5429C151.117 33.0808 150.397 34.4425 149.307 35.628C148.25 36.8134 146.92 37.7426 145.318 38.4154C143.748 39.0882 142.082 39.4247 140.32 39.4247Z" fill="#020121"/>
<path d="M169.904 39.2321C167.469 39.2321 165.338 38.6875 163.512 37.5981C161.685 36.5088 160.276 34.9549 159.283 32.9364C158.289 30.9179 157.793 28.563 157.793 25.8717C157.793 23.2124 158.289 20.8735 159.283 18.855C160.276 16.8045 161.669 15.2345 163.464 14.1452C165.258 13.0558 167.356 12.5112 169.759 12.5112C172.098 12.5112 174.149 13.0558 175.911 14.1452C177.673 15.2025 179.035 16.7564 179.996 18.8069C180.989 20.8254 181.486 23.2444 181.486 26.0639V27.3615H163.127C163.223 29.7965 163.864 31.6548 165.05 32.9364C166.267 34.2179 167.901 34.8587 169.952 34.8587C171.458 34.8587 172.707 34.5223 173.7 33.8495C174.693 33.1767 175.398 32.2155 175.815 30.9659L181.101 31.3024C180.429 33.7374 179.083 35.6757 177.064 37.1175C175.078 38.5273 172.691 39.2321 169.904 39.2321ZM176.055 23.5167C175.895 21.306 175.254 19.64 174.133 18.5186C173.043 17.3972 171.586 16.8365 169.759 16.8365C167.933 16.8365 166.427 17.4132 165.242 18.5666C164.088 19.7201 163.384 21.3701 163.127 23.5167H176.055Z" fill="#020121"/>
<path d="M185.004 13.0879H189.665L189.858 19.9123L189.233 19.5759C189.649 17.205 190.594 15.4428 192.068 14.2894C193.574 13.1039 195.4 12.5112 197.547 12.5112C200.302 12.5112 202.433 13.4083 203.939 15.2025C205.445 16.9647 206.198 19.3036 206.198 22.2191V38.6554H201.103V23.757C201.103 21.4502 200.719 19.7201 199.95 18.5666C199.181 17.3812 197.916 16.7885 196.153 16.7885C194.295 16.7885 192.821 17.3972 191.732 18.6147C190.643 19.8322 190.098 21.5463 190.098 23.757V38.6554H185.004V13.0879Z" fill="#020121"/>
<path d="M209.986 32.6001H216.233V38.6556H209.986V32.6001Z" fill="#7CCE00"/>
<path d="M227.276 39.2321C224.617 39.2321 222.486 38.6234 220.884 37.4059C219.314 36.1563 218.529 34.4422 218.529 32.2635C218.529 30.0848 219.186 28.3707 220.5 27.1212C221.813 25.8717 223.88 24.9745 226.699 24.4299L235.494 22.7478C235.494 20.7614 235.03 19.2875 234.101 18.3264C233.204 17.3331 231.842 16.8365 230.016 16.8365C228.414 16.8365 227.132 17.205 226.171 17.9419C225.21 18.6467 224.569 19.704 224.248 21.1138L218.962 20.7774C219.443 18.1822 220.644 16.1637 222.566 14.7219C224.521 13.2481 227.004 12.5112 230.016 12.5112C233.444 12.5112 236.055 13.4243 237.849 15.2506C239.675 17.0768 240.589 19.672 240.589 23.0362V32.9844C240.589 33.5932 240.701 34.0257 240.925 34.282C241.149 34.5063 241.502 34.6184 241.982 34.6184H242.895V38.6554C242.671 38.6875 242.383 38.7195 242.03 38.7515C241.71 38.7836 241.374 38.7996 241.021 38.7996C239.259 38.7996 237.945 38.3831 237.08 37.5501C236.247 36.685 235.831 35.2432 235.831 33.2247L236.359 33.465C236.007 35.1311 234.982 36.5088 233.284 37.5981C231.586 38.6875 229.583 39.2321 227.276 39.2321ZM228.141 35.1951C229.647 35.1951 230.945 34.9068 232.034 34.3301C233.155 33.7213 234.005 32.8883 234.581 31.831C235.19 30.7737 235.494 29.5722 235.494 28.2266V26.5925L228.045 28.0343C226.539 28.3227 225.45 28.7712 224.777 29.38C224.136 29.9887 223.816 30.7897 223.816 31.7829C223.816 32.8723 224.184 33.7213 224.921 34.3301C225.69 34.9068 226.764 35.1951 228.141 35.1951Z" fill="#7CCE00"/>
<path d="M246.162 13.0878H251.256V38.6553H246.162V13.0878ZM246.066 4.29297H251.4V9.38725H246.066V4.29297Z" fill="#7CCE00"/>
</g>
<defs>
<clipPath id="clip0_70_2">
<rect width="252" height="44" fill="white"/>
</clipPath>
</defs>
</svg>
